<svg xmlns="http://www.w3.org/2000/svg" xmlns:xlink="http://www.w3.org/1999/xlink" width="7" height="13" viewBox="0 0 7 13"><defs><path id="z1l3a" d="M47.49 742a3.5 3.5 0 0 0-3.49 3.52V752h1v-6.48a2.42 2.42 0 0 1 2.49-2.52c1.45 0 2.5 1.05 2.5 2.52v6.87c0 .96-.5 1.61-1.5 1.61-.94 0-1.5-.65-1.5-1.6v-4.7c0-.47.11-.7.5-.7.4 0 .5.23.5.7v4.3h1v-4.3c0-.95-.56-1.7-1.5-1.7-.92 0-1.5.75-1.5 1.7v4.7c0 1.42 1.13 2.6 2.5 2.6 1.44 0 2.5-1.16 2.5-2.6v-6.88a3.53 3.53 0 0 0-3.5-3.52z"/></defs><g><g transform="translate(-44 -742)"><use xlink:href="#z1l3a"/></g></g></svg>