<svg xmlns="http://www.w3.org/2000/svg" xmlns:xlink="http://www.w3.org/1999/xlink" width="240" height="109" viewBox="0 0 240 109"><defs><path id="7jy6a" d="M932.34 366s70.71 71.17 73.65 74.1c2.93 2.94 9.98 9.67 19.36.29 9.39-9.38 73.8-74.26 73.8-74.26z"/><path id="7jy6b" d="M931.49 366H1100v108.15H931.6z"/><path id="7jy6c" d="M922.98 446.9h-43.41"/><path id="7jy6d" d="M922.98 421.35H898.3"/><path id="7jy6e" d="M922.13 394.95H860"/><path id="7jy6f" d="M931.71 473.93l53.96-54.28"/><path id="7jy6g" d="M1099.23 474.35l-54.55-53.85"/><path id="7jy6h" d="M932.34 366s70.71 71.17 73.65 74.1c2.93 2.94 9.98 9.67 19.36.29 9.39-9.38 73.8-74.26 73.8-74.26L932.34 366z"/><path id="7jy6j" d="M931.49 366H1100v108.15H931.6l-.1-108.15z"/><clipPath id="7jy6i"><use fill="#fff" xlink:href="#7jy6a"/></clipPath><clipPath id="7jy6k"><use fill="#fff" xlink:href="#7jy6b"/></clipPath></defs><g><g transform="translate(-860 -366)"><g><use fill="#fff" fill-opacity="0" stroke="#fff" stroke-miterlimit="50" xlink:href="#7jy6c"/></g><g><use fill="#fff" fill-opacity="0" stroke="#fff" stroke-miterlimit="50" xlink:href="#7jy6d"/></g><g><use fill="#fff" fill-opacity="0" stroke="#fff" stroke-miterlimit="50" xlink:href="#7jy6e"/></g><g><use fill="#fff" fill-opacity="0" stroke="#fff" stroke-miterlimit="50" xlink:href="#7jy6f"/></g><g><use fill="#fff" fill-opacity="0" stroke="#fff" stroke-miterlimit="50" xlink:href="#7jy6g"/></g><g><use fill="#fff" fill-opacity="0" stroke="#fff" stroke-miterlimit="50" stroke-width="2" clip-path="url(&quot;#7jy6i&quot;)" xlink:href="#7jy6h"/></g><g><use fill="#fff" fill-opacity="0" stroke="#fff" stroke-miterlimit="50" stroke-width="2" clip-path="url(&quot;#7jy6k&quot;)" xlink:href="#7jy6j"/></g></g></g></svg>