<svg xmlns="http://www.w3.org/2000/svg" xmlns:xlink="http://www.w3.org/1999/xlink" width="169" height="109" viewBox="0 0 169 109"><defs><path id="3z2ya" d="M932.34 366s70.71 71.17 73.65 74.1c2.93 2.94 9.98 9.67 19.36.29 9.39-9.38 73.8-74.26 73.8-74.26z"/><path id="3z2yb" d="M931.49 366H1100v108.15H931.6z"/><path id="3z2yc" d="M931.71 473.93l53.96-54.28"/><path id="3z2yd" d="M1099.23 474.35l-54.55-53.85"/><path id="3z2ye" d="M932.34 366s70.71 71.17 73.65 74.1c2.93 2.94 9.98 9.67 19.36.29 9.39-9.38 73.8-74.26 73.8-74.26L932.34 366z"/><path id="3z2yg" d="M931.49 366H1100v108.15H931.6l-.1-108.15z"/><clipPath id="3z2yf"><use fill="#fff" xlink:href="#3z2ya"/></clipPath><clipPath id="3z2yh"><use fill="#fff" xlink:href="#3z2yb"/></clipPath></defs><g><g transform="translate(-931 -366)"><use fill="#fff" fill-opacity="0" stroke="#fff" stroke-miterlimit="50" xlink:href="#3z2yc"/></g><g transform="translate(-931 -366)"><use fill="#fff" fill-opacity="0" stroke="#fff" stroke-miterlimit="50" xlink:href="#3z2yd"/></g><g transform="translate(-931 -366)"><use fill="#fff" fill-opacity="0" stroke="#fff" stroke-miterlimit="50" stroke-width="2" clip-path="url(&quot;#3z2yf&quot;)" xlink:href="#3z2ye"/></g><g transform="translate(-931 -366)"><use fill="#fff" fill-opacity="0" stroke="#fff" stroke-miterlimit="50" stroke-width="2" clip-path="url(&quot;#3z2yh&quot;)" xlink:href="#3z2yg"/></g></g></svg>